<svg id="Capa_1" enable-background="new 0 0 512 512" height="512" viewBox="0 0 512 512" width="512" xmlns="http://www.w3.org/2000/svg"><g><g><path d="m450.182 441.905-219.978-381.013-7.133.019-219.433 380.068c-10.338 17.905 2.584 40.287 23.26 40.287h411.266c13.89-6.768 20.583-24.527 12.018-39.361z" fill="#dd636e"/><path d="m508.362 440.979-229.102-396.816c-10.338-17.905-36.182-17.905-46.519 0l-9.67 16.748 219.11 379.509c10.338 17.905-2.584 40.846-23.26 40.846h66.181c20.675 0 33.597-22.382 23.26-40.287z" fill="#da4a54"/><path d="m250.977 96.871-193.568 335.269c-1.791 3.102.448 6.978 4.029 6.978h387.135z" fill="#f9f6f9"/><path d="m454.591 432.14-194.562-336.991c-1.791-3.102-6.267-3.102-8.058 0l-4.566 7.909 194.024 336.06h9.133c3.581 0 5.819-3.876 4.029-6.978z" fill="#dddaec"/></g><path d="m271.993 388.981c0 8.833-7.16 15.993-15.993 15.993s-15.993-7.16-15.993-15.993 7.16-15.993 15.993-15.993c8.832.001 15.993 7.161 15.993 15.993z" fill="#dd636e"/><g><g><path d="m256.101 346.502c-8.777 0-15.892-7.115-15.892-15.892v-140.542c0-8.777 7.115-15.892 15.892-15.892s15.892 7.115 15.892 15.892v140.542c0 8.777-7.115 15.892-15.892 15.892z" fill="#dd636e"/></g></g></g></svg>